<svg version="1.1" xmlns="http://www.w3.org/2000/svg" viewBox="0 0 1024 1024">
  <path d="M 311 127 L 311 127 l -76 166 l 7 68 l 34 30 l 15 -56 l -21 -22 Z
           M 464 386 l -69 -20 l -54 55 l 112 -7 l 27 -23 l 20 -56 Z
           M 625 324 l -32 -7 l -13 34 Z
           M 409 951 l 43 72 l -452 0 L 54 736 l 243 -90 l 18 208 Z" />
  <path d="M 471 57 l 138 2 l 139 205 l -42 357 l 160 18 L 1024 1024 l -467 0 l -17 -32 l 9 -20 l -10 -12 l 12 -182 l -56 -18 l 2 -52 l 40 -5 l 6 -24 l -142 -34 l 141 -9 l 7 -29 l -93 -43 l 46 -6 l 30 -23 l 11 -142 l 76 -6 l -7 -12 l 55 3 l -36 -17 l -11 -62 l 25 -50 l -49 -114
           M 586 764 l 34 -5 l -7 -39
           M 614 546 l 30 -62 l -62 16
           M 672 639 l -58 -14 l 43 30 Z" />
</svg>
